<svg width="608" height="374" viewBox="0 0 608 374" fill="none" xmlns="http://www.w3.org/2000/svg">
<g clip-path="url(#clip0_14_2)">
<path opacity="0.1" d="M608 240.211C608.01 250.344 606.785 260.441 604.35 270.277C603.531 273.591 602.58 276.837 601.496 280.013C600.169 283.934 598.632 287.781 596.891 291.536C596.014 293.436 595.086 295.298 594.109 297.122C594.125 307.513 591.986 317.794 587.827 327.317C580.308 344.401 566.902 358.215 550.051 366.241C539.514 371.268 528 373.912 516.327 373.985H115.419C97.5817 374.023 80.0526 369.336 64.6137 360.402L64.3762 360.268C62.1772 358.981 60.0332 357.618 57.9443 356.179C53.2443 352.932 48.8286 349.292 44.7449 345.297C39.2175 339.895 34.347 333.86 30.2342 327.317C20.5749 311.978 15.4579 294.217 15.4759 276.09C5.69372 258.925 -0.010376 238.363 -0.010376 216.268C-0.010376 188.391 9.05424 162.961 23.9468 143.711C27.0517 139.689 30.4526 135.905 34.1213 132.39C37.7411 128.911 41.6318 125.726 45.7566 122.865C49.0567 120.573 52.5058 118.504 56.0808 116.67C57.5726 115.911 59.0696 115.194 60.5924 114.528C61.9294 113.934 63.2819 113.382 64.6498 112.86C66.2914 112.237 67.9536 111.664 69.6364 111.141C71.3192 110.618 72.9797 110.16 74.6178 109.768C77.0268 109.18 79.477 108.701 81.9686 108.333C84.0334 108.028 86.0983 107.817 88.1631 107.657C89.8046 107.533 91.4617 107.466 93.129 107.445H94.0324C95.8701 107.445 97.6975 107.517 99.5094 107.641C99.7004 107.259 99.9068 106.872 100.098 106.495C100.821 105.117 101.569 103.743 102.323 102.401C102.321 102.389 102.321 102.377 102.323 102.365C102.452 102.128 102.581 101.895 102.715 101.668C103.324 100.569 103.959 99.4794 104.609 98.4004C104.909 97.8842 105.203 97.3989 105.508 96.9136C105.572 96.793 105.643 96.6759 105.719 96.5626C106.029 96.0464 106.344 95.5301 106.664 95.0139C108.257 92.4671 109.914 89.9651 111.635 87.5078L112.074 86.8779C112.342 86.4959 112.59 86.1242 112.889 85.7422C113.602 84.7459 114.335 83.7444 115.073 82.7635C115.589 82.0614 116.105 81.3645 116.663 80.6986C118.005 78.9778 119.382 77.257 120.793 75.5362C122.204 73.8154 123.67 72.1169 125.191 70.4409C125.397 70.2086 125.604 69.9814 125.82 69.7543L128.025 67.3486C128.133 67.235 128.226 67.1318 128.329 67.0285C128.593 66.7446 128.845 66.4607 129.129 66.1871C130.311 64.9326 131.525 63.704 132.743 62.4805C138.943 56.3049 145.548 50.5499 152.514 45.2536C152.787 45.0367 153.066 44.8302 153.34 44.6237C154.651 43.6377 155.982 42.662 157.314 41.7018C164.64 36.4462 172.297 31.6697 180.239 27.402C180.786 27.0871 181.344 26.7928 181.906 26.5037C189.026 22.7368 196.349 19.3658 203.84 16.4061C207.923 14.7903 212.099 13.2725 216.301 11.8838C219.099 10.9649 221.907 10.0925 224.752 9.27166C229.198 7.99139 233.675 6.84362 238.183 5.82835C251.465 2.84802 264.977 1.00696 278.572 0.325231C282.701 0.115294 286.877 0.00688471 291.1 1.51491e-06C311.475 -0.026974 331.77 2.54045 351.496 7.64034C351.7 7.94859 351.979 8.19987 352.307 8.37056C352.635 8.54125 353.001 8.62572 353.37 8.61604H355.105C355.858 8.82253 356.607 9.02903 357.36 9.24585C361.569 10.4573 365.718 11.7806 369.806 13.2157L370.839 13.5874C380.929 17.1758 390.747 21.489 400.216 26.4934C408.751 30.9937 416.97 36.0716 424.813 41.6915C426.021 42.5588 427.212 43.433 428.385 44.314C429.81 43.402 431.259 42.5278 432.732 41.6915C438.42 38.4518 444.461 35.8761 450.737 34.015C463.858 30.132 477.741 29.589 491.125 32.4353C508.289 36.0748 523.827 45.109 536.376 57.9582C541.486 63.2155 546.034 68.9907 549.947 75.1903C550.231 75.6343 550.515 76.0834 550.789 76.5377C554.152 82.0247 557.043 87.7878 559.43 93.7646C559.518 93.9866 559.606 94.1931 559.683 94.4099C561.887 100.007 563.664 105.762 565 111.626C565.062 111.926 565.134 112.22 565.196 112.52C566.445 118.195 567.294 123.952 567.736 129.746C567.736 129.953 567.736 130.165 567.777 130.381C567.994 133.379 568.104 136.408 568.107 139.467C568.107 142.203 568.015 144.919 567.844 147.614C567.844 147.908 567.803 148.212 567.777 148.517C567.731 149.296 567.664 150.066 567.596 150.85C571.539 154.031 575.229 157.512 578.633 161.263C580.137 162.905 581.593 164.608 583 166.374C587.287 171.747 591.055 177.515 594.253 183.601C602.982 200.079 608 219.464 608 240.211Z" fill="#E8F1FB"/>
<path opacity="0.1" d="M549.669 364.331C549.669 367.857 537.522 371.161 516.327 374H115.419C97.5818 374.038 80.0526 369.352 64.6137 360.418L64.3763 360.284C70.4676 358.064 81.4628 355.994 96.4276 354.125L97.0987 354.042C103.809 353.221 111.31 352.442 119.507 351.704C119.714 351.704 119.925 351.673 120.132 351.647C126.636 351.069 133.555 350.527 140.889 350.021C141.121 350.021 141.348 349.979 141.58 349.969C144.409 349.766 147.297 349.573 150.242 349.391L151.378 349.319C172.826 347.987 197.207 346.923 223.647 346.221H223.678C227.381 346.118 231.123 346.027 234.906 345.948C239.111 345.848 243.368 345.76 247.677 345.684C250.965 345.612 254.294 345.56 257.634 345.509H257.712C272.78 345.282 288.349 345.168 304.268 345.168C343.634 345.168 380.843 345.886 413.813 347.176H413.906C418.975 347.372 423.951 347.589 428.804 347.811L432.933 348.007C438.409 348.269 443.743 348.549 448.936 348.849C510.003 352.323 549.669 357.966 549.669 364.331Z" fill="#536DFE"/>
<g opacity="0.2">
<path d="M351.166 342.798C351.149 343.355 351.086 343.91 350.975 344.456C347.382 343.884 343.769 343.368 340.135 342.907C340.135 342.762 340.135 342.613 340.135 342.463C340.168 340.915 340.614 339.404 341.425 338.085C342.488 336.402 344.104 335.349 345.885 335.406C347.666 335.463 349.209 336.614 350.164 338.354C350.887 339.72 351.232 341.254 351.166 342.798Z" fill="#4600A9"/>
<path d="M351.462 333.977C351.589 329.984 349.219 326.67 346.17 326.574C343.121 326.477 340.547 329.636 340.421 333.628C340.295 337.62 342.664 340.935 345.713 341.031C348.762 341.128 351.336 337.969 351.462 333.977Z" fill="#4600A9"/>
<path d="M351.744 325.139C351.87 321.146 349.501 317.832 346.452 317.735C343.403 317.639 340.829 320.797 340.703 324.79C340.577 328.782 342.946 332.097 345.995 332.193C349.044 332.289 351.618 329.131 351.744 325.139Z" fill="#4600A9"/>
<path d="M352.021 316.3C352.147 312.308 349.777 308.993 346.728 308.897C343.679 308.801 341.105 311.959 340.979 315.951C340.853 319.944 343.223 323.258 346.271 323.355C349.32 323.451 351.894 320.293 352.021 316.3Z" fill="#4600A9"/>
<path d="M352.297 307.462C352.423 303.47 350.054 300.155 347.005 300.059C343.956 299.962 341.382 303.121 341.256 307.113C341.13 311.106 343.499 314.42 346.548 314.517C349.597 314.613 352.171 311.455 352.297 307.462Z" fill="#4600A9"/>
<path d="M327.988 246.138C327.261 245.153 326.606 244.118 326.027 243.04L340.615 241.115L324.912 240.738C323.51 237.414 322.802 233.839 322.829 230.231C322.857 226.624 323.62 223.06 325.072 219.758L345.782 231.348L326.811 216.459C328.725 213.364 331.256 210.696 334.247 208.623C337.238 206.55 340.625 205.116 344.195 204.41C347.765 203.705 351.442 203.743 354.996 204.522C358.551 205.302 361.907 206.806 364.854 208.941C367.801 211.076 370.277 213.795 372.126 216.93C373.975 220.064 375.158 223.547 375.601 227.159C376.044 230.771 375.737 234.436 374.7 237.924C373.663 241.413 371.918 244.65 369.574 247.434C370.705 248.965 371.665 250.614 372.439 252.353L353.293 261.542L373.595 255.435C374.874 259.654 375.08 264.126 374.195 268.444C373.309 272.763 371.361 276.793 368.526 280.168C371.474 284.168 373.236 288.916 373.612 293.87C373.989 298.824 372.963 303.785 370.653 308.183C368.343 312.582 364.842 316.242 360.55 318.744C356.258 321.247 351.349 322.491 346.383 322.334C341.417 322.178 336.596 320.627 332.47 317.859C328.344 315.091 325.081 311.218 323.053 306.682C321.024 302.147 320.313 297.132 321.001 292.211C321.688 287.291 323.747 282.663 326.94 278.857C323.419 274.077 321.606 268.253 321.793 262.319C321.98 256.385 324.157 250.686 327.973 246.138H327.988Z" fill="#536DFE"/>
<path opacity="0.1" d="M374.72 263.989C374.54 269.927 372.357 275.629 368.526 280.168C371.474 284.168 373.236 288.916 373.612 293.87C373.989 298.824 372.963 303.784 370.653 308.183C368.343 312.582 364.842 316.242 360.55 318.744C356.258 321.247 351.349 322.491 346.383 322.334C341.417 322.178 336.596 320.627 332.47 317.859C328.344 315.091 325.081 311.218 323.053 306.682C321.024 302.147 320.313 297.132 321.001 292.211C321.688 287.291 323.747 282.663 326.94 278.857C323.549 274.247 374.813 261.021 374.72 263.989Z" fill="black"/>
</g>
<g opacity="0.2">
<path d="M272.702 342.798C272.686 343.355 272.622 343.91 272.511 344.456C268.919 343.884 265.305 343.368 261.671 342.907C261.671 342.762 261.671 342.613 261.671 342.463C261.705 340.915 262.15 339.404 262.961 338.085C264.025 336.402 265.641 335.349 267.422 335.406C269.202 335.463 270.746 336.614 271.701 338.354C272.423 339.72 272.769 341.254 272.702 342.798Z" fill="#4600A9"/>
<path d="M272.993 333.979C273.119 329.987 270.75 326.672 267.701 326.576C264.652 326.479 262.078 329.638 261.952 333.63C261.826 337.623 264.195 340.937 267.244 341.033C270.293 341.13 272.867 337.971 272.993 333.979Z" fill="#4600A9"/>
<path d="M273.275 325.141C273.401 321.148 271.032 317.834 267.983 317.737C264.934 317.641 262.36 320.799 262.234 324.792C262.107 328.784 264.477 332.099 267.526 332.195C270.575 332.292 273.149 329.133 273.275 325.141Z" fill="#4600A9"/>
<path d="M273.551 316.303C273.677 312.31 271.308 308.996 268.259 308.899C265.21 308.803 262.636 311.961 262.51 315.954C262.384 319.946 264.753 323.261 267.802 323.357C270.851 323.453 273.425 320.295 273.551 316.303Z" fill="#4600A9"/>
<path d="M273.828 307.464C273.954 303.472 271.585 300.157 268.536 300.061C265.487 299.964 262.913 303.123 262.786 307.115C262.66 311.108 265.03 314.422 268.079 314.519C271.128 314.615 273.702 311.457 273.828 307.464Z" fill="#4600A9"/>
<path d="M249.525 246.138C248.798 245.153 248.142 244.118 247.563 243.04L262.151 241.115L246.448 240.738C245.047 237.414 244.338 233.839 244.366 230.231C244.393 226.624 245.156 223.06 246.608 219.758L267.318 231.348L248.348 216.459C250.261 213.364 252.793 210.696 255.784 208.623C258.775 206.55 262.161 205.116 265.731 204.41C269.301 203.705 272.978 203.743 276.533 204.522C280.088 205.302 283.443 206.806 286.391 208.941C289.338 211.076 291.813 213.795 293.662 216.93C295.511 220.064 296.694 223.547 297.137 227.159C297.58 230.771 297.274 234.436 296.237 237.924C295.2 241.413 293.455 244.65 291.11 247.434C292.241 248.965 293.202 250.614 293.975 252.353L274.829 261.542L295.132 255.435C296.41 259.654 296.616 264.126 295.731 268.444C294.846 272.763 292.898 276.793 290.062 280.168C293.01 284.168 294.773 288.916 295.149 293.87C295.525 298.824 294.5 303.785 292.19 308.183C289.88 312.582 286.379 316.242 282.087 318.744C277.795 321.247 272.885 322.491 267.92 322.334C262.954 322.178 258.132 320.627 254.007 317.859C249.881 315.091 246.617 311.218 244.589 306.682C242.561 302.147 241.85 297.132 242.537 292.211C243.225 287.291 245.283 282.663 248.477 278.857C244.955 274.077 243.142 268.253 243.33 262.319C243.517 256.385 245.693 250.686 249.509 246.138H249.525Z" fill="#536DFE"/>
<path opacity="0.1" d="M296.257 263.989C296.076 269.927 293.893 275.629 290.062 280.168C293.01 284.168 294.773 288.916 295.149 293.87C295.525 298.824 294.5 303.784 292.19 308.183C289.88 312.582 286.379 316.242 282.087 318.744C277.795 321.247 272.885 322.491 267.92 322.334C262.954 322.178 258.132 320.627 254.007 317.859C249.881 315.091 246.617 311.218 244.589 306.682C242.561 302.147 241.85 297.132 242.537 292.211C243.225 287.291 245.283 282.663 248.477 278.857C245.085 274.247 296.35 261.021 296.257 263.989Z" fill="black"/>
</g>
<g opacity="0.2">
<path d="M487.032 348.446C486.992 349.501 486.866 350.551 486.655 351.585C479.738 350.48 472.771 349.492 465.754 348.622C465.754 348.343 465.754 348.059 465.754 347.77C465.819 344.789 466.678 341.879 468.242 339.34C470.307 336.103 473.404 334.074 476.826 334.177C480.249 334.281 483.227 336.506 485.086 339.856C486.487 342.495 487.159 345.461 487.032 348.446Z" fill="#4600A9"/>
<path d="M487.594 331.45C487.836 323.761 483.273 317.378 477.4 317.193C471.527 317.007 466.569 323.089 466.326 330.778C466.083 338.466 470.647 344.849 476.52 345.035C482.393 345.221 487.351 339.138 487.594 331.45Z" fill="#4600A9"/>
<path d="M488.13 314.434C488.373 306.746 483.809 300.363 477.936 300.177C472.063 299.991 467.106 306.074 466.863 313.762C466.62 321.451 471.184 327.834 477.056 328.019C482.929 328.205 487.887 322.123 488.13 314.434Z" fill="#4600A9"/>
<path d="M488.672 297.419C488.915 289.73 484.351 283.347 478.478 283.162C472.605 282.976 467.647 289.058 467.404 296.747C467.161 304.435 471.725 310.818 477.598 311.004C483.471 311.19 488.429 305.107 488.672 297.419Z" fill="#4600A9"/>
<path d="M488.603 279.629C488.834 271.937 484.258 265.558 478.382 265.382C472.506 265.205 467.556 271.298 467.325 278.991C467.094 286.683 471.67 293.062 477.546 293.238C483.422 293.414 488.372 287.321 488.603 279.629Z" fill="#4600A9"/>
<path d="M442.406 162.362C441.013 160.467 439.752 158.479 438.632 156.41L466.714 152.704L436.49 151.976C433.79 145.577 432.424 138.694 432.476 131.75C432.527 124.805 433.995 117.943 436.789 111.585L476.666 133.892L440.15 105.23C443.842 99.2852 448.719 94.1644 454.477 90.187C460.235 86.2096 466.75 83.4607 473.617 82.1118C480.484 80.7629 487.555 80.8428 494.389 82.3465C501.224 83.8503 507.675 86.7456 513.342 90.8521C519.009 94.9587 523.769 100.188 527.326 106.215C530.883 112.242 533.16 118.937 534.017 125.883C534.873 132.829 534.29 139.877 532.303 146.587C530.316 153.297 526.969 159.527 522.47 164.887C524.644 167.837 526.494 171.013 527.988 174.36L491.125 192.062L530.207 180.291C532.671 188.404 533.072 197.002 531.374 205.309C529.677 213.615 525.935 221.367 520.487 227.863C526.161 235.563 529.553 244.704 530.277 254.241C531 263.777 529.025 273.326 524.578 281.793C520.131 290.26 513.391 297.306 505.129 302.123C496.867 306.94 487.416 309.335 477.857 309.033C468.298 308.732 459.016 305.746 451.074 300.418C443.132 295.09 436.849 287.635 432.944 278.904C429.039 270.173 427.669 260.519 428.992 251.047C430.315 241.575 434.276 232.666 440.423 225.339C433.648 216.137 430.16 204.926 430.519 193.505C430.879 182.084 435.065 171.114 442.406 162.357V162.362Z" fill="#536DFE"/>
<path opacity="0.1" d="M532.381 196.723C532.042 208.147 527.859 219.122 520.508 227.873C526.181 235.573 529.574 244.714 530.297 254.251C531.021 263.788 529.046 273.336 524.599 281.803C520.152 290.271 513.412 297.316 505.149 302.133C496.887 306.95 487.436 309.345 477.877 309.044C468.318 308.742 459.037 305.757 451.095 300.429C443.152 295.101 436.869 287.645 432.964 278.914C429.059 270.183 427.69 260.53 429.013 251.057C430.335 241.585 434.297 232.676 440.444 225.349C433.868 216.464 532.561 191.009 532.381 196.723Z" fill="black"/>
</g>
<path d="M81.4679 349.355L86.883 349.339H94.5177L104.171 192.516L199.767 32.9825L195.612 28.5222V17.2269L92.2257 188.82L81.4679 349.355Z" fill="#929297"/>
<path opacity="0.1" d="M87.4611 349.339H94.5177L104.171 192.516L199.767 32.9825L195.612 28.5222L97.0058 190.126L87.4611 349.339Z" fill="black"/>
<path d="M65.5119 350.661L313.214 369.617L313.426 369.633L553.148 354.889L553.328 354.879V344.755L289.185 339.908L68.8105 339.696H67.1999L67.0244 340.832L65.5119 350.661Z" fill="#929297"/>
<path opacity="0.1" d="M65.5119 350.661L313.214 369.617L313.426 369.633L553.148 354.889L553.328 354.693V344.967H553.117L313.214 352.979L68.8105 339.696H68.7744L68.3408 339.98L67.0244 340.832L65.5119 350.661Z" fill="black"/>
<path opacity="0.1" d="M65.5119 350.661L313.214 369.617V352.979L68.3408 339.98L67.0244 340.832L65.5119 350.661Z" fill="black"/>
<path d="M195.581 28.3106L304.785 145.528L301.409 351.714L310.685 352.834L310.84 352.855H320.116L321.226 154.381L525.711 222.69L529.16 344.316L536.624 345.153L539.153 345.436L533.3 214.255L319.538 139.204L202.328 17.3456H195.581V28.3106Z" fill="#929297"/>
<path opacity="0.1" d="M320.384 150.587L321.226 154.381L525.711 222.69L529.16 344.316L536.624 345.153L530.77 220.161L320.384 150.587Z" fill="black"/>
<path opacity="0.1" d="M195.581 28.3106L304.785 145.528L301.409 351.714L310.685 352.834L313.214 138.781L195.581 17.3456V28.3106Z" fill="black"/>
<path d="M320.782 233.335L395.782 248.105L395.808 248.11L527.167 273.989L533.181 271.578L533.16 271.155L532.768 262.766L320.859 219.944L320.782 233.335Z" fill="#929297"/>
<path opacity="0.1" d="M395.808 248.11L527.167 273.989L533.181 271.578L533.16 271.155L395.808 248.11Z" fill="black"/>
<path d="M400.83 180.973L402.859 292.656L403.907 349.954L413.142 349.644L418.954 349.448L417.148 182.589L413.142 181.257L412.264 180.973H400.83Z" fill="#929297"/>
<path opacity="0.1" d="M400.913 180.947V180.973L402.859 292.656L403.907 349.954L413.142 349.644V180.947H400.913Z" fill="black"/>
<path d="M256.173 209.495C256.715 209.79 257.233 210.126 257.722 210.502C258.3 211.008 258.82 211.578 259.271 212.2C261.485 215.065 263.529 218.395 263.313 222.009C263.317 222.535 263.218 223.056 263.02 223.543C262.823 224.031 262.531 224.474 262.161 224.848C261.248 225.628 259.937 225.664 258.739 225.664C257.438 225.664 256.07 225.664 254.945 224.993C253.819 224.322 252.88 223.015 251.548 223.046C251.36 223.078 251.168 223.078 250.98 223.046C250.521 222.897 250.428 222.293 250.129 221.911C249.612 221.224 248.523 221.394 247.713 221.694C246.902 221.993 246.004 222.442 245.204 222.097C244.739 221.851 244.36 221.472 244.115 221.007C242.2 217.91 241.792 214.188 241.43 210.59C241.208 208.401 239.515 200.936 244.187 202.634C246.252 203.378 248.182 204.864 250.061 205.954L256.173 209.495Z" fill="#4600A9"/>
<path d="M251.558 210.233C251.976 210.534 252.481 210.685 252.995 210.665C253.509 210.644 254.001 210.452 254.392 210.12C255.161 209.425 255.651 208.475 255.771 207.446C256.287 207.286 256.55 207.962 256.881 208.375C257.459 209.077 258.636 209.067 259.162 209.815C259.529 210.331 259.446 211.049 259.704 211.632C260.04 212.386 260.871 212.778 261.439 213.388C261.975 214.053 262.362 214.826 262.574 215.654L263.421 218.194C263.826 219.25 264.086 220.356 264.195 221.482C264.249 222.045 264.189 222.613 264.021 223.153C263.853 223.693 263.578 224.193 263.214 224.626C262.079 225.85 260.215 225.979 258.569 225.943C258.019 225.954 257.47 225.89 256.937 225.752C255.476 225.297 254.542 223.826 254.155 222.344C253.768 220.863 253.809 219.309 253.582 217.791C253.337 216.3 252.903 214.847 252.291 213.465C251.837 212.391 250.588 210.791 250.609 209.65C250.98 209.65 251.249 209.991 251.558 210.233Z" fill="#4600A9"/>
<path d="M253.412 205.004C253.17 204.271 253.03 203.508 252.994 202.738C252.994 201.189 253.701 199.733 254.413 198.35L248.513 199.15C247.8 199.248 247.006 199.392 246.603 199.986C246.45 200.28 246.37 200.607 246.37 200.938C246.37 201.27 246.45 201.597 246.603 201.891C246.899 202.48 247.134 203.097 247.305 203.734C247.318 204.291 247.382 204.846 247.496 205.391C247.68 205.792 247.937 206.154 248.255 206.46C249.943 208.328 251.207 210.533 252.467 212.716C252.431 212.655 256.024 209.872 255.879 208.963C255.797 208.447 254.759 207.828 254.429 207.332C253.972 206.613 253.629 205.827 253.412 205.004Z" fill="#BE6F72"/>
<path d="M304 184.834V189.919L216.931 206.904L212.414 209.64H196.83V206.775L282.376 186.104L304 184.834Z" fill="#929297"/>
<path opacity="0.1" d="M304 189.919L216.931 206.904L212.414 209.64H196.83L283.011 191.194L304 189.919Z" fill="black"/>
<path d="M234.095 329.185C233.125 328.01 231.786 327.198 230.296 326.882C228.805 326.565 227.252 326.762 225.887 327.44C225.595 327.578 225.338 327.779 225.134 328.029C224.618 328.752 224.948 329.748 224.994 330.641C225.113 332.82 223.379 334.59 221.82 336.113C220.983 336.929 220.132 337.801 219.755 338.911C219.378 340.021 219.657 341.43 220.669 342.009C221.11 342.23 221.591 342.363 222.083 342.401C223.733 342.723 225.425 342.77 227.09 342.54C228.737 342.225 230.353 341.291 231.065 339.773C231.202 339.362 231.43 338.986 231.731 338.674C232.639 337.956 234.033 338.798 235.066 338.287C235.917 337.863 235.953 337.197 235.964 336.32C235.995 333.893 235.633 331.147 234.095 329.185Z" fill="#536DFE"/>
<path d="M246.484 329.092C247.119 330.765 247.207 332.587 247.289 334.373C247.336 335.406 247.367 336.511 246.809 337.383C246.252 338.256 245.163 338.715 244.12 338.932C241.967 339.376 239.474 338.958 238.085 337.249C237.022 335.943 236.8 334.151 236.996 332.458C237.161 331.07 237.512 329.443 236.516 328.457C236.258 328.194 235.923 328.008 235.685 327.724C235.169 327.095 235.251 326.145 235.53 325.37C235.893 324.63 236.165 323.848 236.341 323.042C236.382 322.66 243.33 323.31 243.97 323.625C244.843 324.054 244.708 324.771 244.972 325.639C245.338 326.847 246.04 327.936 246.484 329.092Z" fill="#536DFE"/>
<path d="M247.759 254.929C249.122 255.812 249.648 257.547 249.86 259.157C250.443 263.571 249.421 268.032 249.344 272.487C249.272 278.728 251.078 285.083 249.535 291.128C248.611 294.742 249.396 298.872 248.528 302.521C248.27 303.606 247.795 304.628 247.548 305.712C247.031 308.061 247.573 310.518 248.301 312.815C248.534 313.434 248.681 314.082 248.74 314.741C248.705 315.755 248.448 316.749 247.986 317.652L244.889 324.978C244.543 325.799 243.18 325.933 242.308 326.041C240.666 326.238 238.834 326.377 237.528 325.36C236.222 324.343 235.907 322.639 235.706 321.049C235.32 317.997 235.147 314.921 235.19 311.845C235.246 311.042 235.175 310.235 234.978 309.455C234.694 308.572 234.069 307.808 233.899 306.873C233.682 305.665 234.296 304.478 234.524 303.26C234.679 302.147 234.662 301.017 234.472 299.909C234.271 298.257 234.038 296.605 233.775 294.964C233.403 292.666 233.935 290.4 234.291 288.098C234.627 285.935 234.198 283.73 233.775 281.583C233.812 283.326 233.594 285.065 233.13 286.745C232.856 287.566 232.464 288.351 232.226 289.187C231.168 292.94 233.424 296.879 233.104 300.766C232.954 302.583 232.242 304.38 232.443 306.171C232.583 307.483 233.192 308.685 233.61 309.935C234.028 311.184 234.245 312.614 233.61 313.781C231.932 316.95 233.187 321.261 234.689 324.513C234.994 325.09 235.259 325.687 235.484 326.299C235.928 327.766 235.556 329.34 235.675 330.868C235.242 330.939 234.8 330.91 234.38 330.784C233.961 330.658 233.575 330.438 233.254 330.14C233.027 329.903 232.841 329.624 232.619 329.376C231.999 328.785 231.264 328.327 230.461 328.029C229.989 327.765 229.452 327.641 228.912 327.673C228.345 327.831 227.835 328.148 227.441 328.586C226.931 329.035 226.389 329.448 225.82 329.82C225.578 330.006 225.295 330.132 224.994 330.187C224.843 330.21 224.689 330.185 224.552 330.116C224.416 330.046 224.305 329.936 224.236 329.8C224.203 329.713 224.184 329.623 224.179 329.531C223.987 327.972 223.885 326.404 223.874 324.833C223.874 322.133 220.643 320.275 220.235 317.606C219.91 315.453 220.514 313.259 220.312 311.091C220.214 309.976 219.905 308.882 219.925 307.766C219.925 307.044 220.09 306.337 220.147 305.619C220.195 304.822 220.182 304.023 220.111 303.229L219.951 300.735C219.796 298.273 219.626 295.759 218.655 293.508C217.505 290.88 216.823 288.07 216.642 285.207C216.539 283.4 216.606 281.593 216.4 279.781C216.214 278.145 215.801 276.518 215.919 274.877C216.018 273.607 216.436 272.378 216.534 271.108C216.735 268.666 215.806 266.292 215.078 263.953C214.35 261.615 213.813 259.023 214.768 256.767C214.905 256.397 215.132 256.067 215.429 255.807C215.795 255.565 216.212 255.409 216.647 255.353C225.504 253.492 234.582 252.913 243.604 253.634C245.074 253.717 246.502 254.162 247.759 254.929Z" fill="#4600A9"/>
<path d="M218.454 200.1C223.021 200.1 226.724 196.397 226.724 191.829C226.724 187.262 223.021 183.559 218.454 183.559C213.887 183.559 210.184 187.262 210.184 191.829C210.184 196.397 213.887 200.1 218.454 200.1Z" fill="#BE6F72"/>
<path d="M216.854 202.159C216.973 202.632 216.973 203.127 216.854 203.6C216.724 203.93 216.541 204.237 216.312 204.508C215.511 205.541 214.625 206.505 213.664 207.389C214.154 208.483 215.036 209.355 216.136 209.831C217.229 210.296 218.375 210.624 219.548 210.806C220.134 210.96 220.744 211.002 221.345 210.93C221.899 210.791 222.423 210.553 222.893 210.228L227.488 207.477C228.181 207.101 228.823 206.638 229.398 206.098C230.24 205.232 230.717 204.075 230.729 202.867C230.751 202.65 230.692 202.433 230.564 202.257C230.388 202.104 230.167 202.012 229.934 201.994C228.319 201.638 227.044 200.327 226.321 198.84C225.668 197.316 225.245 195.703 225.067 194.054L220.168 196.636C219.44 197.023 218.717 197.41 217.964 197.746C217.484 197.962 216.513 198.143 216.172 198.582C215.522 199.392 216.683 201.184 216.854 202.159Z" fill="#BE6F72"/>
<path d="M213.695 205.887C212.997 206.458 212.453 207.195 212.11 208.029C211.79 209.062 212.11 210.151 212.399 211.173C213.754 215.53 214.789 219.979 215.496 224.487C215.93 227.584 216.09 230.728 216.301 233.862C216.735 240.253 217.365 250.443 218.206 256.793C221.304 256.932 224.323 256.029 227.395 255.699C233.135 255.089 239.046 256.483 244.667 255.182C243.304 249.798 241.942 240.604 240.579 235.225C239.976 233.105 239.558 230.937 239.329 228.746C239.211 227.171 239.283 225.591 239.304 224.007C239.35 220.909 239.18 217.812 239.009 214.714C238.813 211.101 238.617 207.487 237.76 203.951C237.701 203.5 237.489 203.083 237.161 202.769C236.645 202.392 235.974 202.526 235.36 202.609C233.479 202.847 231.575 202.396 230.002 201.339C229.32 200.874 228.407 200.306 227.772 200.822C227.501 201.134 227.322 201.515 227.255 201.922C226.974 202.652 226.541 203.314 225.984 203.863C225.426 204.413 224.758 204.837 224.024 205.107C222.553 205.64 221.012 205.956 219.45 206.047C218.972 206.149 218.474 206.093 218.031 205.887C217.298 205.437 217.246 203.822 216.322 203.713C215.512 203.62 214.242 205.365 213.695 205.887Z" fill="#4600A9"/>
<path d="M225.908 218.493C224.003 216.671 223.167 214.028 221.778 211.782C220.833 210.272 219.625 208.943 218.211 207.859C217.501 207.389 216.849 206.836 216.27 206.212C215.78 205.608 215.408 204.803 214.665 204.57C214.358 204.503 214.039 204.512 213.736 204.596C213.433 204.679 213.155 204.835 212.925 205.05C212.47 205.484 212.04 205.942 211.635 206.423C209.446 208.69 205.6 209.005 203.866 211.627C203.398 212.183 203.08 212.85 202.942 213.563C202.443 217.38 203.43 221.243 205.699 224.352C206.138 225.073 206.813 225.62 207.609 225.901C207.501 226.864 207.628 227.838 207.98 228.741C208.936 232.008 210.11 235.207 211.496 238.317C211.164 239.533 210.933 240.775 210.804 242.029C210.442 245.183 210.778 248.383 210.437 251.543C210.159 254.124 209.405 256.638 209.379 259.224C209.379 259.637 209.415 260.128 209.771 260.34C209.961 260.437 210.173 260.481 210.386 260.469L216.735 260.66C220.421 260.768 224.143 260.876 227.772 260.195C228.255 260.124 228.724 259.975 229.16 259.756C230.389 259.07 230.797 257.521 230.993 256.143C231.249 254.355 231.351 252.548 231.297 250.743C232.066 253.174 232.98 255.688 235.303 256.741C236.532 257.299 237.936 257.258 239.283 257.221C242.187 257.092 245.081 256.794 247.95 256.328C248.127 256.35 248.306 256.331 248.474 256.271C248.642 256.211 248.794 256.112 248.916 255.983C249.039 255.854 249.13 255.698 249.182 255.528C249.234 255.357 249.245 255.177 249.215 255.002L249.246 252.183C249.308 246.458 247.888 240.986 247.336 235.286C247.16 233.49 247.176 231.673 246.737 229.912C246.556 229.174 246.293 228.451 246.133 227.708C245.995 226.98 245.909 226.244 245.875 225.504L245.472 219.825C245.281 217.197 245.008 214.663 244.806 212.04C244.696 209.487 244.326 206.951 243.702 204.472C243.253 202.923 242.318 201.168 240.703 200.977C239.841 200.879 239.004 201.256 238.184 201.519C236.166 202.154 234.001 202.145 231.989 201.493C231.367 201.248 230.72 201.075 230.058 200.977C229.726 200.932 229.387 200.976 229.076 201.105C228.766 201.234 228.496 201.442 228.293 201.71C228.093 202.114 227.998 202.561 228.019 203.011C227.777 208.168 227.328 213.48 225.908 218.493Z" fill="#536DFE"/>
<path d="M217.602 218.648C215.223 216.139 212.781 213.584 209.715 211.989C208.507 211.359 207.134 210.884 205.797 211.121C204.46 211.359 203.216 212.52 203.278 213.878C203.319 214.719 203.83 215.463 203.99 216.289C204.176 217.218 203.907 218.209 204.196 219.108C204.431 219.699 204.782 220.238 205.229 220.692L208.884 225.024C210.432 226.83 211.981 228.663 213.973 229.912C215.966 231.162 218.547 231.745 220.736 230.857C222.293 230.133 223.588 228.945 224.442 227.455C225.351 226.01 225.991 224.43 226.842 222.938C228.168 220.554 229.917 218.432 232.004 216.676C230.931 216.397 229.583 216.005 228.907 215.127C228.715 214.848 228.55 214.551 228.417 214.239L227.581 212.433C227.296 212.418 227.012 212.462 226.745 212.562C226.479 212.663 226.236 212.817 226.032 213.016C225.673 213.43 225.289 213.822 224.881 214.188C224.153 214.735 223.167 214.885 222.506 215.509C222.251 215.777 222.019 216.068 221.815 216.377C221.315 217.034 220.68 217.576 219.954 217.968C219.228 218.359 218.426 218.591 217.602 218.648Z" fill="#4600A9"/>
<path d="M232.195 207.853C233.987 204.586 233.904 200.667 234.415 196.976C234.471 195.999 234.814 195.059 235.401 194.276C236.434 193.11 238.256 193.094 239.815 193.244C240.274 193.296 240.847 193.512 240.821 193.972C240.785 194.136 240.705 194.288 240.589 194.411C239.078 196.361 238.189 198.721 238.039 201.184C238.849 201.746 240.104 200.59 240.883 201.184C241.399 201.617 241.162 202.474 240.852 203.094C240.133 204.529 239.391 205.954 238.627 207.368C238.018 208.615 237.222 209.762 236.268 210.77C235.613 211.4 234.844 211.896 234.178 212.515C232.629 213.966 231.695 216.015 230.095 217.43C229.959 217.576 229.776 217.67 229.578 217.693C229.375 217.678 229.183 217.593 229.036 217.45C228.237 216.8 227.574 215.998 227.085 215.091C226.476 213.966 226.569 213.635 227.529 212.84C229.325 211.421 231.075 209.898 232.195 207.853Z" fill="#BE6F72"/>
<path d="M214.608 216.428C214.918 216.619 215.3 216.836 215.641 216.676C215.78 216.592 215.898 216.477 215.987 216.34C216.577 215.553 217.069 214.697 217.453 213.79C217.519 213.662 217.556 213.521 217.561 213.377C217.561 213.047 217.267 212.804 216.993 212.613C215.527 211.679 213.951 210.93 212.301 210.383C210.938 209.867 209.513 209.418 208.068 209.547C207.525 209.583 206.995 209.729 206.509 209.976C206.024 210.222 205.594 210.565 205.244 210.982C204.212 212.309 205.941 212.711 207.025 213.191C209.534 214.332 212.249 214.993 214.608 216.428Z" fill="#536DFE"/>
<path opacity="0.1" d="M212.982 225.204C212.965 225.322 212.975 225.442 213.013 225.555C213.051 225.668 213.114 225.771 213.199 225.855C213.349 225.122 213.153 224.347 213.307 223.609C213.535 222.499 214.613 221.663 214.706 220.548C212.729 220.161 212.998 224.007 212.982 225.204Z" fill="black"/>
<path opacity="0.2" d="M304 184.834V189.919L283.011 191.194L282.376 186.104L304 184.834Z" fill="black"/>
<path d="M211.01 193.058C212.321 191.989 211.563 189.749 212.451 188.314C212.967 187.529 213.839 187.116 214.696 186.765C215.73 186.281 216.838 185.974 217.974 185.857C218.543 185.802 219.117 185.876 219.653 186.074C220.189 186.271 220.674 186.587 221.071 186.997C221.407 187.379 221.634 187.844 221.949 188.242C222.339 188.705 222.847 189.055 223.42 189.253C223.992 189.451 224.608 189.49 225.201 189.367C225.887 189.212 226.6 188.691 226.553 187.989C226.476 187.562 226.258 187.173 225.934 186.884L224.458 185.247C222.78 183.389 220.916 181.417 218.454 180.952C216.74 180.627 214.985 181.086 213.333 181.639C212.667 181.861 211.919 182.191 211.733 182.868C211.609 183.332 211.795 183.838 211.687 184.308C211.475 185.242 210.277 185.557 209.72 186.342C209.162 187.126 209.333 188.056 209.173 188.923C209.013 189.79 208.548 190.637 208.491 191.535C208.455 192.077 208.729 193.084 209.338 193.28C209.947 193.476 210.633 192.413 211.01 193.058Z" fill="#4600A9"/>
<path d="M226.053 187.245C225.617 184.974 224.679 182.829 223.306 180.968C222.086 179.229 220.388 177.88 218.418 177.086C217.433 176.701 216.374 176.544 215.32 176.627C214.266 176.71 213.244 177.031 212.332 177.566C210.977 178.533 209.924 179.862 209.291 181.401C207.954 184.282 207.459 187.803 209.013 190.57C209.632 189.816 210.695 190.157 211.635 189.883C212.812 189.548 213.808 188.763 214.928 188.273C218.309 186.781 222.439 187.989 226.053 187.245Z" fill="#FED253"/>
<path opacity="0.1" d="M209.802 187.085C209.684 186.156 209.606 185.077 210.267 184.416C210.3 184.376 210.342 184.343 210.389 184.322C210.437 184.3 210.488 184.29 210.541 184.292C210.587 184.307 210.629 184.331 210.666 184.363C210.702 184.395 210.731 184.434 210.752 184.478C211.134 185.08 211.458 185.716 211.723 186.378C211.338 186.289 210.935 186.318 210.567 186.461C210.199 186.603 209.882 186.853 209.658 187.178" fill="black"/>
<path opacity="0.1" d="M221.866 184.463L221.68 182.62C221.65 182.468 221.663 182.311 221.716 182.165C221.794 182.044 221.914 181.955 222.054 181.917C222.193 181.879 222.341 181.894 222.47 181.959C222.724 182.1 222.933 182.309 223.074 182.563C223.504 183.223 223.86 183.927 224.137 184.664C223.306 184.504 222.451 184.514 221.624 184.695" fill="black"/>
<path opacity="0.1" d="M226.486 259.261V263.473L222.93 263.711H204.222V259.261H226.486Z" fill="black"/>
<path d="M226.486 259.261V263.711H204.222L145.075 189.615V186.115H157.474L226.486 259.261Z" fill="#929297"/>
<path opacity="0.1" d="M226.486 259.261V263.711H204.222L145.075 189.615V186.115H157.474L226.486 259.261Z" fill="black"/>
<path opacity="0.1" d="M226.486 259.261V263.711H204.222L145.075 189.615V186.115L204.542 259.261H226.486Z" fill="black"/>
<path d="M152.829 333.527C152.867 333.736 152.863 333.951 152.815 334.159C152.767 334.366 152.676 334.562 152.549 334.733C152.423 334.904 152.262 335.047 152.077 335.153C151.892 335.259 151.688 335.326 151.476 335.349C150.041 335.834 148.518 336.315 147.501 337.414C146.484 338.514 146.283 340.553 147.501 341.446C148.124 341.821 148.839 342.016 149.566 342.009C151.905 342.169 154.341 342.138 156.463 341.147C157.98 340.444 159.41 339.247 161.078 339.355C161.94 339.407 162.858 339.809 163.628 339.417C164.397 339.025 164.614 337.93 164.619 337.017C164.638 335.109 164.351 333.211 163.767 331.395C163.69 331.147 160.406 330.956 160.014 330.879L156.034 330.362C155.281 330.264 153.654 329.696 153.061 330.326C152.467 330.956 152.829 332.778 152.829 333.527Z" fill="#536DFE"/>
<path d="M176.579 320.641C176.748 321.571 177.021 322.479 177.395 323.347C177.947 324.751 178.654 326.243 180.007 326.924C181.235 327.538 182.743 327.316 183.992 326.733C184.513 326.517 184.97 326.17 185.319 325.726C185.722 325.024 185.902 324.216 185.835 323.409C185.835 321.411 185.716 319.346 184.802 317.57C184.018 316.021 182.65 314.689 182.629 312.975L177.927 313.884C177.675 313.908 177.435 314.003 177.235 314.158C177.086 314.314 176.982 314.509 176.935 314.72C176.433 316.652 176.312 318.663 176.579 320.641Z" fill="#536DFE"/>
<path d="M120.421 271.599C120.225 273.261 120.307 275.042 121.175 276.477C122.042 277.912 123.869 278.862 125.449 278.289C125.53 278.269 125.606 278.232 125.672 278.181C125.739 278.131 125.794 278.067 125.836 277.995C125.878 277.82 125.854 277.637 125.769 277.479C125.072 275.618 125.129 273.558 125.929 271.738C126.032 271.501 126.254 271.222 126.497 271.315C126.598 271.366 126.68 271.45 126.729 271.552C126.979 271.985 127.104 272.478 127.09 272.977C127.018 273.429 127.004 273.889 127.049 274.345C127.147 274.789 127.622 275.207 128.035 275.016C128.154 274.943 128.258 274.846 128.338 274.732C128.419 274.617 128.476 274.487 128.505 274.35C129.656 271.021 129.135 267.381 128.608 263.896C128.612 263.816 128.599 263.736 128.569 263.662C128.539 263.588 128.494 263.521 128.435 263.466C128.376 263.412 128.306 263.37 128.23 263.346C128.154 263.321 128.073 263.313 127.994 263.323C125.557 263.081 124.225 262.497 122.832 264.764C121.634 266.674 120.421 269.301 120.421 271.599Z" fill="#536DFE"/>
<path d="M148.905 263.127C148.183 266.132 147.455 269.172 147.408 272.26C147.421 274.182 147.566 276.102 147.842 278.005L148.384 282.476C148.57 283.983 148.75 285.486 149.014 286.977C149.182 287.746 149.273 288.529 149.287 289.316C149.237 290.092 149.114 290.861 148.921 291.613C148.596 293.194 148.415 294.801 148.379 296.414C148.322 298.996 148.642 301.577 148.843 304.158C149.245 309.302 149.185 314.471 148.663 319.604C148.454 320.989 148.755 322.403 149.509 323.584C149.815 323.956 150.067 324.37 150.258 324.813C150.645 325.995 149.742 327.177 149.509 328.39C149.361 329.336 149.594 330.303 150.157 331.077C150.72 331.851 151.568 332.37 152.514 332.52C156.643 333.011 160.887 332.789 164.608 334.678C165.001 333.532 164.144 332.231 164.536 331.064C164.784 330.342 165.465 329.872 165.93 329.263C166.554 328.335 166.865 327.231 166.818 326.114C166.836 324.655 166.577 323.206 166.054 321.844C165.615 320.709 164.985 319.588 165.021 318.37C165.021 317.771 165.233 317.141 164.99 316.589C164.824 316.272 164.598 315.989 164.324 315.758C162.782 314.068 161.834 311.919 161.625 309.64C161.423 307.379 161.496 305.101 161.842 302.857C162.094 300.72 162.435 298.464 163.793 296.796C163.163 291.74 163.533 286.61 164.882 281.696C165.016 281.242 165.228 280.716 165.692 280.607C165.877 280.588 166.063 280.614 166.236 280.682C166.408 280.751 166.562 280.859 166.684 280.999C167.494 281.758 167.881 282.858 168.232 283.911C168.619 285.052 169.012 286.27 168.717 287.437C168.594 287.953 168.346 288.407 168.201 288.903C167.887 289.899 167.942 290.975 168.356 291.933C168.558 292.284 168.684 292.672 168.728 293.074C168.68 293.419 168.575 293.754 168.418 294.065C168.227 294.676 168.166 295.321 168.24 295.957C168.313 296.593 168.52 297.206 168.846 297.757C169.504 298.853 170.316 299.849 171.257 300.715C170.808 302.696 170.924 304.764 171.593 306.682C171.641 306.769 171.672 306.864 171.683 306.962C171.695 307.061 171.687 307.16 171.66 307.255C171.567 307.452 171.329 307.524 171.144 307.663C170.627 308.087 170.947 308.887 171.293 309.439C172.241 310.955 173.288 312.407 174.427 313.786C175.459 315.02 175.366 317.399 176.904 317.843C177.551 317.983 178.22 317.983 178.866 317.843C180.384 317.611 182.077 317.172 182.82 315.83C183.125 315.278 183.249 314.607 183.724 314.194C184.198 313.781 184.813 313.708 185.076 313.213C185.339 312.717 185.045 312.067 185.133 311.494C185.221 310.921 185.721 310.461 185.881 309.857C186.263 308.463 184.637 307.317 184.415 305.893C184.095 303.828 186.697 302.279 186.589 300.214C186.361 295.728 186.217 291.221 185.985 286.735C185.693 282.716 185.652 278.684 185.861 274.66C186.041 272.156 186.377 269.534 185.458 267.206C184.137 263.922 180.492 262.079 176.966 261.728C173.441 261.377 169.925 262.213 166.431 262.761C160.631 263.655 154.738 263.778 148.905 263.127Z" fill="#4600A9"/>
<path d="M159.384 213.785C163.952 213.785 167.654 210.082 167.654 205.515C167.654 200.947 163.952 197.245 159.384 197.245C154.817 197.245 151.115 200.947 151.115 205.515C151.115 210.082 154.817 213.785 159.384 213.785Z" fill="#FBBEBE"/>
<path d="M156.019 215.329C155.738 215.983 155.265 216.537 154.664 216.917C154.062 217.298 153.359 217.487 152.648 217.461C152.348 218.7 153.066 219.949 153.887 220.925C155.591 222.908 157.794 224.401 160.267 225.249C162.741 226.098 165.396 226.271 167.959 225.752C168.956 225.573 169.902 225.178 170.731 224.595C171.848 223.662 172.598 222.364 172.847 220.93C173.085 219.506 173.152 218.059 173.048 216.619C173.077 216.335 172.996 216.05 172.821 215.824C172.615 215.664 172.36 215.58 172.099 215.587C170.354 215.432 168.532 215.365 166.998 214.508C165.465 213.651 164.376 211.715 165.114 210.125C164.996 210.373 161.981 210.491 161.583 210.543C160.339 210.719 159.095 210.915 157.856 211.142C157.261 211.175 156.673 211.286 156.106 211.472C155.358 211.86 155.637 211.669 155.812 212.371C156.075 213.444 156.463 214.214 156.019 215.329Z" fill="#FBBEBE"/>
<path d="M162.311 220.357C161.197 220.37 160.086 220.247 159.002 219.99C157.908 219.735 156.943 219.091 156.287 218.178C155.905 217.6 155.657 216.872 155.048 216.547C154.052 216.031 152.916 216.903 152.121 217.703C151.398 218.492 150.559 219.168 149.633 219.706C148.529 220.29 147.238 220.496 146.195 221.183C145.381 221.798 144.682 222.553 144.13 223.413L136.816 233.376C133.879 237.382 131.323 241.683 128.706 245.911C126.44 249.571 125.253 253.783 123.544 257.733C123.409 257.974 123.353 258.252 123.384 258.528C123.446 258.796 123.771 259.013 123.998 258.858C123.229 259.622 123.905 260.923 123.725 261.997C123.519 262.748 123.091 263.419 122.496 263.922C123.632 263.774 124.786 263.828 125.903 264.082C127.058 264.41 128.148 264.933 129.124 265.631C129.749 265.533 129.692 264.423 130.157 264.01C130.435 263.767 130.848 263.798 131.215 263.726C132.593 263.458 133.14 261.801 134.199 260.866C135.081 260.087 136.331 259.834 137.265 259.101C138.783 257.908 139.108 255.786 139.903 254.026C140.579 252.534 141.642 251.233 142.236 249.705C142.623 248.714 142.809 247.64 143.361 246.726C144.244 245.25 145.906 244.465 147.491 243.758C148.492 243.309 149.556 242.844 150.635 242.916C150.578 245.317 150.273 247.681 150.795 250.025C150.975 250.851 151.228 251.656 151.445 252.477C152.431 256.174 152.663 260.025 152.71 263.835C155.082 263.292 157.504 263.001 159.937 262.967C161.852 262.91 163.762 263.158 165.677 263.122C167.948 263.081 170.194 262.642 172.465 262.487C174.736 262.332 177.111 262.487 179.119 263.52C178.956 260.248 179.047 256.969 179.393 253.711L179.94 248.58C180.063 247.089 180.293 245.609 180.626 244.15C180.926 242.973 181.359 241.838 181.69 240.666C182.851 236.536 182.64 232.127 182.418 227.827C182.304 225.617 181.452 223.444 180.451 221.477C180.088 220.746 179.674 220.043 179.212 219.371C178.002 217.703 176.389 216.37 174.524 215.494C172.659 214.618 170.603 214.229 168.547 214.363C168.284 214.371 168.026 214.427 167.783 214.528C167.347 214.807 167.007 215.213 166.807 215.69C165.739 217.61 164.19 219.218 162.311 220.357Z" fill="#4600A9"/>
<path d="M152.111 208.256C152.343 207.74 152.968 207.549 153.35 207.136C154.083 206.351 153.753 205.097 153.866 204.038C154.052 202.49 155.337 201.194 156.808 200.642C158.309 200.16 159.905 200.059 161.454 200.347C162.2 200.402 162.92 200.641 163.55 201.044C163.819 201.24 164.066 201.493 164.319 201.674C164.78 201.953 165.332 202.04 165.857 201.918C166.381 201.795 166.837 201.473 167.127 201.018C165.3 198.819 163.277 196.496 160.499 195.82C159.547 195.625 158.576 195.534 157.603 195.546C156.318 195.521 154.991 195.5 153.804 195.99C152.188 196.656 151.053 198.189 150.469 199.841C149.959 201.516 149.687 203.254 149.659 205.004C149.553 206.172 149.553 207.347 149.659 208.514C149.859 210.109 150.451 211.629 151.383 212.938C151.509 213.142 151.687 213.308 151.899 213.419C154.253 214.451 151.92 208.685 152.111 208.256Z" fill="#4600A9"/>
<path d="M166.859 199.743C166.575 197.312 164.841 195.304 162.998 193.688C161.512 192.287 159.743 191.222 157.81 190.565C155.864 189.992 153.623 190.116 151.956 191.277C150.614 192.211 149.762 193.698 149.107 195.195C148.245 196.962 147.819 198.909 147.863 200.874C147.992 202.825 148.941 204.803 150.635 205.789C151.244 204.89 152.302 204.426 153.319 204.059C157.751 202.377 162.271 200.937 166.859 199.743Z" fill="#FED253"/>
<path opacity="0.1" d="M151.202 198.732C151.368 198.732 151.476 198.902 151.559 199.041C151.979 199.696 152.34 200.387 152.638 201.106C152.034 201.235 150.996 201.38 150.697 200.848C150.537 200.58 150.728 198.706 151.202 198.732Z" fill="black"/>
<path opacity="0.1" d="M162.967 197.565C162.843 197.684 162.698 197.441 162.698 197.265V195.262C162.695 195.207 162.708 195.151 162.735 195.102C162.756 195.078 162.782 195.058 162.811 195.044C162.841 195.03 162.872 195.021 162.905 195.02C163.323 194.973 163.669 195.33 163.937 195.67C164.345 196.222 164.699 196.812 164.996 197.431L162.812 197.364" fill="black"/>
<path d="M190.217 230.733C190.693 230.282 191.2 229.866 191.735 229.489C193.165 228.534 194.894 228.157 196.5 227.548C198.105 226.939 199.736 225.953 200.361 224.352C200.674 223.352 200.776 222.297 200.66 221.255C200.675 220.819 200.598 220.384 200.433 219.98C200.237 219.623 199.957 219.318 199.618 219.092C197.439 217.481 194.517 217.352 191.813 217.517C185.849 217.887 180.004 219.347 174.566 221.823C174.278 221.918 174.026 222.098 173.843 222.339C173.737 222.563 173.69 222.81 173.704 223.057C173.608 224.579 173.806 226.106 174.287 227.553C175 229.391 176.466 230.873 177.08 232.747C177.359 233.588 177.452 234.481 177.694 235.328C177.893 236.202 178.41 236.971 179.145 237.486C181.184 238.704 183.109 237.067 184.524 235.798L190.217 230.733Z" fill="#4600A9"/>
<path d="M163.514 237.883L160.897 232.174C160.513 231.382 160.182 230.567 159.906 229.732C159.606 228.735 159.462 227.703 159.183 226.701C158.264 223.366 155.946 220.589 154.816 217.321C154.744 217.026 154.599 216.754 154.393 216.531C154.228 216.415 154.039 216.336 153.84 216.3C153.641 216.264 153.437 216.273 153.241 216.325C151.662 216.599 150.428 217.801 148.983 218.483C148.312 218.793 147.589 218.999 146.918 219.355C146.583 219.514 146.285 219.744 146.047 220.028C145.808 220.312 145.633 220.644 145.535 221.002C145.374 221.792 145.767 222.551 146.097 223.32C147.501 226.49 147.821 230.031 147.883 233.5C147.93 235.834 147.811 238.337 146.433 240.211C143.785 243.825 145.478 249.132 146.469 253.505C146.588 254.021 146.727 254.578 146.81 255.126C146.897 255.81 146.937 256.5 146.928 257.191C146.928 259.508 146.799 261.899 145.829 264C146.787 264.51 147.843 264.809 148.926 264.877C151.923 265.259 154.933 265.528 157.954 265.683C158.901 265.772 159.856 265.723 160.788 265.538C161.896 265.239 162.872 264.579 163.563 263.663C164.254 262.746 164.62 261.626 164.603 260.479C164.768 261.909 165.073 263.463 166.111 264.454C167.148 265.445 168.661 265.595 170.07 265.672C174.047 265.883 178.035 265.771 181.994 265.337C182.247 265.325 182.495 265.268 182.727 265.166C183.491 264.784 183.533 263.731 183.471 262.885C183.357 261.3 183.238 259.715 183.047 258.14C182.885 257.137 182.803 256.122 182.8 255.105C182.878 254.059 183.051 253.022 183.316 252.007C184.007 248.786 184.555 245.498 184.322 242.199C184.231 241.395 184.198 240.586 184.224 239.778C184.359 237.955 185.319 236.221 185.138 234.409C184.622 229.081 184.204 223.614 182.717 218.473C182.449 217.554 182.108 216.568 181.308 216.041C180.275 215.349 178.825 215.711 177.643 215.272C177.088 215.014 176.561 214.701 176.068 214.337C174.999 213.668 173.772 213.291 172.512 213.243C171.562 213.207 170.503 213.419 169.93 214.183C169.665 214.613 169.49 215.092 169.414 215.592C168.666 218.741 167.788 221.854 166.911 224.967L166.069 227.951L163.813 235.963C163.591 236.815 163.741 237.078 163.514 237.883Z" fill="#536DFE"/>
<path d="M176.713 206.625L226.646 259.101V263.551H204.382L166.859 214.575" fill="#929297"/>
<path opacity="0.1" d="M176.713 206.625L226.646 259.101V263.551H204.382L166.859 214.575" fill="black"/>
<path opacity="0.1" d="M167.654 213.883L167.814 213.94L204.702 259.101H226.646V263.551H204.382L166.859 214.575L167.654 213.883Z" fill="black"/>
<path d="M173.399 214.988C171.593 215.778 169.585 216.79 169.043 218.689C168.936 219.023 168.913 219.377 168.976 219.722C169.108 220.127 169.359 220.482 169.698 220.741C170.036 221 170.445 221.151 170.87 221.172C171.72 221.193 172.565 221.038 173.353 220.718L184.013 217.197C184.302 217.105 184.632 216.965 184.704 216.681C184.723 216.503 184.687 216.323 184.601 216.165C184.271 215.36 183.946 213.713 183.254 213.15C182.686 212.696 181.561 212.856 180.874 212.866C178.231 212.887 175.748 213.955 173.399 214.988Z" fill="#536DFE"/>
<path d="M182.903 217.616C184.699 217.61 186.484 217.887 188.194 218.436C189.911 218.994 191.433 220.033 192.577 221.431C192.91 221.821 193.147 222.284 193.268 222.783C193.371 223.299 195.054 223.609 194.683 223.96C195.813 223.78 195.545 224.311 196.691 224.301C197.837 224.291 199.076 223.996 199.762 223.083C200.239 222.332 200.452 221.443 200.366 220.558C200.381 219.945 200.265 219.336 200.025 218.772C199.509 217.688 198.322 217.105 197.228 216.604L188.008 212.386C187.473 212.102 186.899 211.898 186.305 211.782C185.804 211.735 185.3 211.747 184.802 211.818L180.626 212.298C181.54 212.889 182.283 213.708 182.784 214.674C183.284 215.64 183.525 216.72 183.481 217.807" fill="#4600A9"/>
</g>
<defs>
<clipPath id="clip0_14_2">
<rect width="608" height="374" fill="white"/>
</clipPath>
</defs>
</svg>
